<?xml version="1.0" encoding="UTF-8" standalone="no"?>
<!DOCTYPE svg PUBLIC "-//W3C//DTD SVG 1.1//EN"
 "http://www.w3.org/Graphics/SVG/1.1/DTD/svg11.dtd">
<!-- Generated by graphviz version 2.28.0 (20121214.2057)
 -->
<!-- Title: G Pages: 1 -->
<svg width="300pt" height="369pt"
 viewBox="0.00 0.00 300.00 369.00" xmlns="http://www.w3.org/2000/svg" xmlns:xlink="http://www.w3.org/1999/xlink">
<g id="graph1" class="graph" transform="scale(1 1) rotate(0) translate(4 365)">
<title>G</title>
<polygon fill="white" stroke="white" points="-4,5 -4,-365 297,-365 297,5 -4,5"/>
<g id="graph2" class="cluster"><title>cluster_AssetManager</title>
<polyline fill="none" stroke="gray" points="20,-8 272,-8 "/>
<path fill="none" stroke="gray" d="M272,-8C278,-8 284,-14 284,-20"/>
<polyline fill="none" stroke="gray" points="284,-20 284,-260 "/>
<path fill="none" stroke="gray" d="M284,-260C284,-266 278,-272 272,-272"/>
<polyline fill="none" stroke="gray" points="272,-272 20,-272 "/>
<path fill="none" stroke="gray" d="M20,-272C14,-272 8,-266 8,-260"/>
<polyline fill="none" stroke="gray" points="8,-260 8,-20 "/>
<path fill="none" stroke="gray" d="M8,-20C8,-14 14,-8 20,-8"/>
<text text-anchor="middle" x="146" y="-257" font-family="Times,serif" font-size="11.00" fill="gray">AssetManager</text>
</g>
<g id="graph3" class="cluster"><title>cluster_AssetManager\Processor</title>
<polyline fill="none" stroke="gray" points="28,-116 264,-116 "/>
<path fill="none" stroke="gray" d="M264,-116C270,-116 276,-122 276,-128"/>
<polyline fill="none" stroke="gray" points="276,-128 276,-231 "/>
<path fill="none" stroke="gray" d="M276,-231C276,-237 270,-243 264,-243"/>
<polyline fill="none" stroke="gray" points="264,-243 28,-243 "/>
<path fill="none" stroke="gray" d="M28,-243C22,-243 16,-237 16,-231"/>
<polyline fill="none" stroke="gray" points="16,-231 16,-128 "/>
<path fill="none" stroke="gray" d="M16,-128C16,-122 22,-116 28,-116"/>
<text text-anchor="middle" x="146" y="-228" font-family="Times,serif" font-size="11.00" fill="gray">Processor</text>
</g>
<g id="graph4" class="cluster"><title>cluster_ViewHelpers</title>
<polyline fill="none" stroke="gray" points="179,-280 261,-280 "/>
<path fill="none" stroke="gray" d="M261,-280C267,-280 273,-286 273,-292"/>
<polyline fill="none" stroke="gray" points="273,-292 273,-341 "/>
<path fill="none" stroke="gray" d="M273,-341C273,-347 267,-353 261,-353"/>
<polyline fill="none" stroke="gray" points="261,-353 179,-353 "/>
<path fill="none" stroke="gray" d="M179,-353C173,-353 167,-347 167,-341"/>
<polyline fill="none" stroke="gray" points="167,-341 167,-292 "/>
<path fill="none" stroke="gray" d="M167,-292C167,-286 173,-280 179,-280"/>
<text text-anchor="middle" x="220" y="-338" font-family="Times,serif" font-size="11.00" fill="gray">ViewHelpers</text>
</g>
<!-- \\AssetManager\\Processor\\CssProcessor -->
<g id="node3" class="node"><title>\\AssetManager\\Processor\\CssProcessor</title>
<a xlink:href="AssetManager.Processor.CssProcessor.html" xlink:title="CssProcessor" target="_parent">
<polygon fill="none" stroke="black" points="267.713,-214 172.287,-214 172.287,-178 267.713,-178 267.713,-214"/>
<text text-anchor="middle" x="220" y="-191.6" font-family="Courier,monospace" font-size="11.00">CssProcessor</text>
</a>
</g>
<!-- \\AssetManager\\Processor\\Processor -->
<g id="node5" class="node"><title>\\AssetManager\\Processor\\Processor</title>
<a xlink:href="AssetManager.Processor.Processor.html" xlink:title="Processor" target="_parent">
<polygon fill="none" stroke="black" points="99.9108,-187 24.0892,-187 24.0892,-151 99.9108,-151 99.9108,-187"/>
<text text-anchor="middle" x="62" y="-164.6" font-family="Courier,monospace" font-size="11.00">Processor</text>
</a>
</g>
<!-- \\AssetManager\\Processor\\CssProcessor&#45;&gt;\\AssetManager\\Processor\\Processor -->
<g id="edge6" class="edge"><title>\\AssetManager\\Processor\\CssProcessor&#45;&gt;\\AssetManager\\Processor\\Processor</title>
<path fill="none" stroke="black" d="M172.195,-187.899C152.477,-184.486 129.575,-180.523 109.852,-177.109"/>
<polygon fill="none" stroke="black" points="110.312,-173.637 99.8618,-175.38 109.118,-180.534 110.312,-173.637"/>
</g>
<!-- \\AssetManager\\Processor\\JsProcessor -->
<g id="node4" class="node"><title>\\AssetManager\\Processor\\JsProcessor</title>
<a xlink:href="AssetManager.Processor.JsProcessor.html" xlink:title="JsProcessor" target="_parent">
<polygon fill="none" stroke="black" points="264.113,-160 175.887,-160 175.887,-124 264.113,-124 264.113,-160"/>
<text text-anchor="middle" x="220" y="-137.6" font-family="Courier,monospace" font-size="11.00">JsProcessor</text>
</a>
</g>
<!-- \\AssetManager\\Processor\\JsProcessor&#45;&gt;\\AssetManager\\Processor\\Processor -->
<g id="edge8" class="edge"><title>\\AssetManager\\Processor\\JsProcessor&#45;&gt;\\AssetManager\\Processor\\Processor</title>
<path fill="none" stroke="black" d="M175.545,-149.521C155.091,-153.061 130.666,-157.289 109.805,-160.899"/>
<polygon fill="none" stroke="black" points="109.14,-157.462 99.8834,-162.616 110.334,-164.36 109.14,-157.462"/>
</g>
<!-- \\AssetManager\\AssetManager -->
<g id="node6" class="node"><title>\\AssetManager\\AssetManager</title>
<a xlink:href="AssetManager.AssetManager.html" xlink:title="AssetManager" target="_parent">
<polygon fill="none" stroke="black" points="267.713,-106 172.287,-106 172.287,-70 267.713,-70 267.713,-106"/>
<text text-anchor="middle" x="220" y="-83.6" font-family="Courier,monospace" font-size="11.00">AssetManager</text>
</a>
</g>
<!-- \\AssetManager\\Request -->
<g id="node7" class="node"><title>\\AssetManager\\Request</title>
<a xlink:href="AssetManager.Request.html" xlink:title="Request" target="_parent">
<polygon fill="none" stroke="black" points="251.208,-52 188.792,-52 188.792,-16 251.208,-16 251.208,-52"/>
<text text-anchor="middle" x="220" y="-29.6" font-family="Courier,monospace" font-size="11.00">Request</text>
</a>
</g>
<!-- \\ViewHelpers\\AssetHelper -->
<g id="node9" class="node"><title>\\ViewHelpers\\AssetHelper</title>
<a xlink:href="ViewHelpers.AssetHelper.html" xlink:title="AssetHelper" target="_parent">
<polygon fill="none" stroke="black" points="264.113,-324 175.887,-324 175.887,-288 264.113,-288 264.113,-324"/>
<text text-anchor="middle" x="220" y="-301.6" font-family="Courier,monospace" font-size="11.00">AssetHelper</text>
</a>
</g>
</g>
</svg>
