<?xml version="1.0" encoding="UTF-8" standalone="no"?>
<!DOCTYPE svg PUBLIC "-//W3C//DTD SVG 1.1//EN"
 "http://www.w3.org/Graphics/SVG/1.1/DTD/svg11.dtd">
<!-- Generated by graphviz version 2.28.0 (20121214.2057)
 -->
<!-- Title: G Pages: 1 -->
<svg width="300pt" height="234pt"
 viewBox="0.00 0.00 300.00 234.00" xmlns="http://www.w3.org/2000/svg" xmlns:xlink="http://www.w3.org/1999/xlink">
<g id="graph1" class="graph" transform="scale(1 1) rotate(0) translate(4 230)">
<title>G</title>
<polygon fill="white" stroke="white" points="-4,5 -4,-230 297,-230 297,5 -4,5"/>
<g id="graph2" class="cluster"><title>cluster_AssetManager</title>
<polyline fill="none" stroke="gray" points="20,-8 272,-8 "/>
<path fill="none" stroke="gray" d="M272,-8C278,-8 284,-14 284,-20"/>
<polyline fill="none" stroke="gray" points="284,-20 284,-206 "/>
<path fill="none" stroke="gray" d="M284,-206C284,-212 278,-218 272,-218"/>
<polyline fill="none" stroke="gray" points="272,-218 20,-218 "/>
<path fill="none" stroke="gray" d="M20,-218C14,-218 8,-212 8,-206"/>
<polyline fill="none" stroke="gray" points="8,-206 8,-20 "/>
<path fill="none" stroke="gray" d="M8,-20C8,-14 14,-8 20,-8"/>
<text text-anchor="middle" x="146" y="-203" font-family="Times,serif" font-size="11.00" fill="gray">AssetManager</text>
</g>
<g id="graph3" class="cluster"><title>cluster_AssetManager\Processor</title>
<polyline fill="none" stroke="gray" points="28,-62 264,-62 "/>
<path fill="none" stroke="gray" d="M264,-62C270,-62 276,-68 276,-74"/>
<polyline fill="none" stroke="gray" points="276,-74 276,-177 "/>
<path fill="none" stroke="gray" d="M276,-177C276,-183 270,-189 264,-189"/>
<polyline fill="none" stroke="gray" points="264,-189 28,-189 "/>
<path fill="none" stroke="gray" d="M28,-189C22,-189 16,-183 16,-177"/>
<polyline fill="none" stroke="gray" points="16,-177 16,-74 "/>
<path fill="none" stroke="gray" d="M16,-74C16,-68 22,-62 28,-62"/>
<text text-anchor="middle" x="146" y="-174" font-family="Times,serif" font-size="11.00" fill="gray">Processor</text>
</g>
<!-- \\AssetManager\\Processor\\CssProcessor -->
<g id="node3" class="node"><title>\\AssetManager\\Processor\\CssProcessor</title>
<a xlink:href="Processor.CssProcessor.html" xlink:title="CssProcessor" target="_parent">
<polygon fill="none" stroke="black" points="267.713,-160 172.287,-160 172.287,-124 267.713,-124 267.713,-160"/>
<text text-anchor="middle" x="220" y="-137.6" font-family="Courier,monospace" font-size="11.00">CssProcessor</text>
</a>
</g>
<!-- \\AssetManager\\Processor\\Processor -->
<g id="node5" class="node"><title>\\AssetManager\\Processor\\Processor</title>
<a xlink:href="Processor.Processor.html" xlink:title="Processor" target="_parent">
<polygon fill="none" stroke="black" points="99.9108,-133 24.0892,-133 24.0892,-97 99.9108,-97 99.9108,-133"/>
<text text-anchor="middle" x="62" y="-110.6" font-family="Courier,monospace" font-size="11.00">Processor</text>
</a>
</g>
<!-- \\AssetManager\\Processor\\CssProcessor&#45;&gt;\\AssetManager\\Processor\\Processor -->
<g id="edge4" class="edge"><title>\\AssetManager\\Processor\\CssProcessor&#45;&gt;\\AssetManager\\Processor\\Processor</title>
<path fill="none" stroke="black" d="M172.195,-133.899C152.477,-130.486 129.575,-126.523 109.852,-123.109"/>
<polygon fill="none" stroke="black" points="110.312,-119.637 99.8618,-121.38 109.118,-126.534 110.312,-119.637"/>
</g>
<!-- \\AssetManager\\Processor\\JsProcessor -->
<g id="node4" class="node"><title>\\AssetManager\\Processor\\JsProcessor</title>
<a xlink:href="Processor.JsProcessor.html" xlink:title="JsProcessor" target="_parent">
<polygon fill="none" stroke="black" points="264.113,-106 175.887,-106 175.887,-70 264.113,-70 264.113,-106"/>
<text text-anchor="middle" x="220" y="-83.6" font-family="Courier,monospace" font-size="11.00">JsProcessor</text>
</a>
</g>
<!-- \\AssetManager\\Processor\\JsProcessor&#45;&gt;\\AssetManager\\Processor\\Processor -->
<g id="edge6" class="edge"><title>\\AssetManager\\Processor\\JsProcessor&#45;&gt;\\AssetManager\\Processor\\Processor</title>
<path fill="none" stroke="black" d="M175.545,-95.521C155.091,-99.0611 130.666,-103.289 109.805,-106.899"/>
<polygon fill="none" stroke="black" points="109.14,-103.462 99.8834,-108.616 110.334,-110.36 109.14,-103.462"/>
</g>
<!-- \\AssetManager\\Request -->
<g id="node6" class="node"><title>\\AssetManager\\Request</title>
<a xlink:href="Request.html" xlink:title="Request" target="_parent">
<polygon fill="none" stroke="black" points="251.208,-52 188.792,-52 188.792,-16 251.208,-16 251.208,-52"/>
<text text-anchor="middle" x="220" y="-29.6" font-family="Courier,monospace" font-size="11.00">Request</text>
</a>
</g>
</g>
</svg>
